# AST/ASF file generated using VICON BodyLanguage
# -----------------------------------------------
:version 1.10
:name VICON
:units
  mass 1.0
  length 0.45
  angle deg
:documentation
   .ast/.asf automatically generated from VICON data using
   VICON BodyBuilder and BodyLanguage model FoxedUp or BRILLIANT.MOD
:root
   order TX TY TZ RX RY RZ
   axis XYZ
   position 0 0 0  
   orientation 0 0 0 
:bonedata
  begin
     id 1 
     name lhipjoint
     direction 0.693937 -0.600361 0.397515 
     length 2.37164 
     axis 0 0 0  XYZ
  end
  begin
     id 2 
     name lfemur
     direction 0.34202 -0.939693 0  
     length 6.18497  
     axis 0 0 20  XYZ
    dof rx ry rz
    limits (-160.0 20.0)
           (-70.0 70.0)
           (-60.0 70.0)
  end
  begin
     id 3 
     name ltibia
     direction 0.34202 -0.939693 0   
     length 6.91601   
     axis 0 0 20   XYZ
    dof rx
    limits (-10.0 170.0)
  end
  begin
     id 4 
     name lfoot
     direction 0.0978718 -0.2689 0.958182   
     length 1.81453   
     axis -90 7.62852e-016 20   XYZ
    dof rx rz
    limits (-45.0 90.0)
           (-70.0 20.0)
  end
  begin
     id 5 
     name ltoes
     direction 1.53569e-011 -4.21951e-011 1   
     length 0.912052   
     axis -90 7.62852e-016 20   XYZ
    dof rx
    limits (-90.0 20.0)
  end
  begin
     id 6 
     name rhipjoint
     direction -0.643996 -0.637876 0.422354   
     length 2.23216  
     axis 0 0 0  XYZ 
  end
  begin
     id 7 
     name rfemur
     direction -0.34202 -0.939693 0   
     length 6.15404   
     axis 0 0 -20   XYZ
    dof rx ry rz
    limits (-160.0 20.0)
           (-70.0 70.0)
           (-70.0 60.0)
  end
  begin
     id 8 
     name rtibia
     direction -0.34202 -0.939693 0   
     length 6.86744   
     axis 0 0 -20   XYZ
    dof rx
    limits (-10.0 170.0)
 end
 begin
     id 9 
     name rfoot
     direction -0.118701 -0.326127 0.937844   
     length 1.9243  
     axis -90 -7.62852e-016 -20   XYZ
    dof rx rz
    limits (-45.0 90.0)
           (-20.0 70.0)
  end
  begin
     id 10 
     name rtoes
     direction -1.5356e-011 -4.2181e-011 1   
     length 0.958865   
     axis -90 -7.62852e-016 -20   XYZ
    dof rx
    limits (-90.0 20.0)
  end
  begin
     id 11 
     name lowerback
     direction 0.0310826 0.968686 -0.246334   
     length 2.00021   
     axis 0 0 0   XYZ
    dof rx ry rz
    limits (-20.0 45.0)
           (-30.0 30.0)
           (-30.0 30.0)
  end
  begin
     id 12 
     name upperback
     direction -0.0152834 0.999474 -0.0286152   
     length 2.03728   
     axis 0 0 0   XYZ
    dof rx ry rz
    limits (-20.0 45.0)
           (-30.0 30.0)
           (-30.0 30.0)
  end
  begin
     id 13 
     name thorax
     direction -0.0323701 0.996236 0.0804149   
     length 2.16   
     axis 0 0 0   XYZ
    dof rx ry rz
    limits (-20.0 45.0)
           (-30.0 30.0)
           (-30.0 30.0)
  end
  begin
     id 14 
     name lowerneck
     direction 0.0307935 0.982251 0.185027   
     length 1.43558   
     axis 0 0 0   XYZ
    dof rx ry rz
    limits (-20.0 45.0)
           (-30.0 30.0)
           (-30.0 30.0)
  end
  begin
     id 15 
     name upperneck
     direction -0.0927153 0.994775 0.0427454   
     length 1.44603   
     axis 0 0 0   XYZ
    dof rx ry rz
    limits (-20.0 45.0)
           (-30.0 30.0)
           (-30.0 30.0)
  end
  begin
     id 16
     name head
     direction -0.0341265 0.999406 -0.00472033  
     length 1.45931  
     axis 0 0 0   XYZ
    dof rx ry rz
    limits (-20.0 45.0)
           (-30.0 30.0)
           (-30.0 30.0)
  end
  begin
     id 17 
     name lclavicle
     direction 0.820755 0.555306 -0.134151  
     length 2.66075  
     axis 0 0 0   XYZ
    dof ry rz
    limits (-20.0 10.0)
           (0.0 20.0)
  end
  begin
     id 18 
     name lhumerus
     direction 1 -4.48971e-011 5.24853e-027   
     length 5.0546   
     axis -180 -30 -90   XYZ
    dof rx ry rz
    limits (-60.0 90.0)
           (-90.0 90.0)
           (-90.0 90.0)
  end
  begin
     id 19
     name lradius
     direction 1 -4.48971e-011 2.76575e-028   
     length 3.39013   
     axis -180 -30 -90   XYZ
    dof rx
    limits (-10.0 170.0)
  end
  begin
     id 20
     name lwrist
     direction 1 -4.48939e-011 -2.27826e-027   
     length 1.69507   
     axis 2.17013e-015 90 90   XYZ
    dof ry
    limits (-180.0 0.0)
 end
  begin
     id 21 
     name lhand
     direction 1 -4.49009e-011 -4.55652e-027   
     length 0.572425   
     axis 2.90745e-015 90 90   XYZ
    dof rx rz
    limits (-90.0 90.0)
           (-45.0 45.0)
  end
  begin
     id 22 
     name lfingers
     direction 1 -4.48955e-011 -9.11303e-027   
     length 0.461504   
     axis 5.81489e-015 90 90   XYZ
    dof rx
    limits (0.0 90.0)
  end
  begin
     id 23
     name lthumb
     direction 0.707107 -6.34929e-011 0.707107   
     length 0.66263   
     axis -90 45 2.85299e-015   XYZ
    dof rx rz
    limits (-45.0 45.0)
           (-45.0 45.0)
  end
  begin
     id 24 
     name rclavicle
     direction -0.754477 0.632921 -0.173712   
     length 2.73081  
     axis 0 0 0   XYZ 
    dof ry rz
    limits (-10.0 20.0)
           (-20.0 0.0)
  end
  begin
     id 25 
     name rhumerus
     direction -1 -4.48969e-011 5.1496e-027  
     length 5.0701   
     axis -180 30 90   XYZ
    dof rx ry rz
    limits (-90.0 60.0)
           (-90.0 90.0)
           (-90.0 90.0)
  end
  begin
     id 26 
     name rradius
     direction -1 -4.48967e-011 -7.15624e-028   
     length 3.14957   
     axis -180 30 90   XYZ
    dof rx
    limits (-10.0 170.0)
  end
  begin
     id 27 
     name rwrist
     direction -1 -4.48938e-011 -2.27826e-027   
     length 1.57479   
     axis 2.17013e-015 -90 -90   XYZ
    dof ry
    limits (-180.0 0.0)
  end
  begin
     id 28
     name rhand
     direction -1 -4.49008e-011 -4.55652e-027   
     length 0.718191   
     axis 2.90745e-015 -90 -90   XYZ
    dof rx rz
    limits (-90.0 90.0)
           (-45.0 45.0)
  end
  begin
     id 29
     name rfingers
     direction -1 -4.48953e-011 -9.11303e-027   
     length 0.579024   
     axis 5.81489e-015 -90 -90   XYZ
    dof rx
    limits (0.0 90.0)
  end
  begin
     id 30
     name rthumb
     direction -0.707107 -6.34937e-011 0.707107   
     length 0.831366   
     axis -90 -45 -2.85299e-015   XYZ
    dof rx rz
    limits (-45.0 45.0)
           (-45.0 45.0)
  end
:hierarchy
  begin
    root lhipjoint rhipjoint lowerback
    lhipjoint lfemur
    lfemur ltibia
    ltibia lfoot
    lfoot ltoes
    rhipjoint rfemur
    rfemur rtibia
    rtibia rfoot
    rfoot rtoes
    lowerback upperback
    upperback thorax
    thorax lowerneck lclavicle rclavicle
    lowerneck upperneck
    upperneck head
    lclavicle lhumerus
    lhumerus lradius
    lradius lwrist
    lwrist lhand lthumb
    lhand lfingers
    rclavicle rhumerus
    rhumerus rradius
    rradius rwrist
    rwrist rhand rthumb
    rhand rfingers
  end

#!OML:ASF H:\Male1\Project 1\Capture day 1\Session 1\Male1.ASF
:FULLY-SPECIFIED
:DEGREES
32
root 8.02714 15.5592 2.06172 177.751 1.78703 -180.134
lowerback 5.85771 1.44459 -0.0135218
upperback 1.97741 2.02834 -1.5217
thorax -1.19231 1.07137 -1.69341
lowerneck -4.93285 6.0022 8.25371
upperneck 2.94521 7.51396 -2.28392
head 2.23679 3.77837 -1.88121
rclavicle -5.81445e-015 -3.18055e-015
rhumerus -36.6491 -1.39745 -87.0518
rradius 33.7332
rwrist -18.3142
rhand -18.1616 0.138268
rfingers 7.12502
rthumb 8.11435 -29.6859
lclavicle -5.81445e-015 -3.18055e-015
lhumerus -31.4638 0.845462 85.589
lradius 28.9736
lwrist -2.61052
lhand -20.1386 10.6071
lfingers 7.12502
lthumb 6.20601 40.4962
rfemur -2.21052 18.2799 23.7106
rtibia 21.597
rfoot -23.6969 -31.6696
rtoes -26.2763
lfemur -1.38054 -19.6082 -22.5566
ltibia 20.9151
lfoot -19.3232 25.2896
ltoes -8.06502
33
root 8.02984 15.5582 2.0628 177.71 1.76848 -180.304
lowerback 5.88455 1.409 -0.27166
upperback 1.97734 1.96785 -1.52943
thorax -1.21729 1.04153 -1.55355
lowerneck -5.57366 5.62959 7.76715
upperneck 4.00923 6.96894 -1.82254
head 2.6351 3.52873 -1.64388
rclavicle -3.10601e-015 -2.22639e-014
rhumerus -36.6537 -1.24764 -87.0675
rradius 33.7523
rwrist -18.3482
rhand -18.2004 0.0608037
rfingers 7.12502
rthumb 8.0769 -29.7649
lclavicle -3.10601e-015 -2.22639e-014
lhumerus -31.4721 0.884221 85.6108
lradius 28.9869
lwrist -2.56375
lhand -20.0887 10.6466
lfingers 7.12502
lthumb 6.25415 40.5342
rfemur -2.24948 18.3034 23.5442
rtibia 21.7568
rfoot -24.2404 -31.4748
rtoes -25.1954
lfemur -1.2655 -19.6149 -22.7419
ltibia 20.7492
lfoot -19.2271 25.2894
ltoes -8.08453
34
root 8.03197 15.5578 2.06368 177.691 1.76513 -180.382
lowerback 5.88397 1.371 -0.424858
upperback 1.97019 1.90844 -1.51604
thorax -1.23111 1.0115 -1.45007
lowerneck -6.14499 5.25916 7.3586
upperneck 5.05492 6.43195 -1.47747
head 3.03606 3.28052 -1.46391
rclavicle -2.18912e-014 4.77083e-015
rhumerus -36.6612 -1.09875 -87.0924
rradius 33.7829
rwrist -18.3684
rhand -18.2317 -0.0171964
rfingers 7.12502
rthumb 8.04674 -29.844
lclavicle -2.18912e-014 4.77083e-015
lhumerus -31.4891 0.901168 85.6296
lradius 29.0109
lwrist -2.48539
lhand -20.0442 10.6905
lfingers 7.12502
lthumb 6.2971 40.5769
rfemur -2.27442 18.3355 23.4698
rtibia 21.8514
rfoot -24.8286 -31.232
rtoes -23.8778
lfemur -1.19443 -19.6452 -22.8262
ltibia 20.6413
lfoot -19.1984 25.3014
ltoes -8.018
35
root 8.03349 15.5579 2.06443 177.688 1.77619 -180.38
lowerback 5.86301 1.33075 -0.484207
upperback 1.95641 1.85002 -1.48684
thorax -1.23768 0.981305 -1.38248
lowerneck -6.59942 4.90073 7.02908
upperneck 6.03111 5.91812 -1.23123
head 3.41082 3.04004 -1.33547
rclavicle 2.23633e-016 1.27222e-014
rhumerus -36.6669 -0.962693 -87.124
rradius 33.8139
rwrist -18.358
rhand -18.2486 -0.0880023
rfingers 7.12502
rthumb 8.03045 -29.9154
lclavicle 2.23633e-016 1.27222e-014
lhumerus -31.5217 0.892449 85.6479
lradius 29.0554
lwrist -2.34984
lhand -20.0104 10.7398
lfingers 7.12502
lthumb 6.32974 40.6252
rfemur -2.2865 18.3591 23.4773
rtibia 21.885
rfoot -25.1732 -31.0722
rtoes -23.0508
lfemur -1.16422 -19.6876 -22.8237
ltibia 20.5948
lfoot -19.2216 25.3231
ltoes -7.91481
36
root 8.03462 15.5579 2.06516 177.687 1.79671 -180.345
lowerback 5.83356 1.28049 -0.511604
upperback 1.94253 1.77962 -1.44327
thorax -1.23921 0.94482 -1.31699
lowerneck -6.85777 4.57437 6.78242
upperneck 6.84166 5.46111 -1.08768
head 3.70827 2.82234 -1.26009
rclavicle 6.98231e-015 -7.15625e-015
rhumerus -36.658 -0.822491 -87.1574
rradius 33.8315
rwrist -18.3079
rhand -18.2436 -0.138141
rfingers 7.12502
rthumb 8.03526 -29.9654
lclavicle 6.98231e-015 -7.15625e-015
lhumerus -31.5696 0.89876 85.6715
lradius 29.1375
lwrist -2.09253
lhand -19.9489 10.8381
lfingers 7.12502
lthumb 6.38913 40.7217
rfemur -2.28825 18.366 23.5206
rtibia 21.8776
rfoot -25.0602 -31.1086
rtoes -23.3118
lfemur -1.15912 -19.7151 -22.7843
ltibia 20.5938
lfoot -19.2651 25.3359
ltoes -7.83062
37
root 8.03556 15.5575 2.06602 177.682 1.8249 -180.317
lowerback 5.80283 1.21099 -0.561409
upperback 1.93584 1.68269 -1.38046
thorax -1.23411 0.895019 -1.21728
lowerneck -6.90473 4.29651 6.54181
upperneck 7.43961 5.08638 -0.971837
head 3.89866 2.64036 -1.19678
rclavicle -1.76421e-015 7.95139e-015
rhumerus -36.6262 -0.647613 -87.1881
rradius 33.8309
rwrist -18.216
rhand -18.2141 -0.150846
rfingers 7.12502
rthumb 8.06373 -29.977
lclavicle -1.76421e-015 7.95139e-015
lhumerus -31.6275 0.965196 85.7134
lradius 29.2808
lwrist -1.59618
lhand -19.8136 11.0467
lfingers 7.12502
lthumb 6.51974 40.9263
rfemur -2.28416 18.3669 23.5595
rtibia 21.8567
rfoot -24.6679 -31.2606
rtoes -24.2269
lfemur -1.1606 -19.7171 -22.7497
ltibia 20.611
lfoot -19.3035 25.3348
ltoes -7.7862
38
root 8.03614 15.5568 2.06707 177.67 1.86047 -180.306
lowerback 5.77326 1.12334 -0.645298
upperback 1.94042 1.5605 -1.29969
thorax -1.21944 0.832709 -1.07826
lowerneck -6.75501 4.06972 6.25423
upperneck 7.80757 4.79651 -0.819337
head 3.9711 2.4967 -1.11269
rclavicle 5.54112e-015 -3.97569e-016
rhumerus -36.5685 -0.446917 -87.2091
rradius 33.8126
rwrist -18.0827
rhand -18.1557 -0.116242
rfingers 7.12502
rthumb 8.12008 -29.9402
lclavicle 5.54112e-015 -3.97569e-016
lhumerus -31.6917 1.07876 85.7864
lradius 29.52
lwrist -0.733741
lhand -19.575 11.42
lfingers 7.12502
lthumb 6.75006 41.2924
rfemur -2.28177 18.3603 23.5768
rtibia 21.845
rfoot -24.253 -31.4006
rtoes -25.1611
lfemur -1.15324 -19.7092 -22.7369
ltibia 20.6212
lfoot -19.3219 25.3389
ltoes -7.7897
39
root 8.03614 15.5562 2.06832 177.653 1.90058 -180.322
lowerback 5.74613 1.02577 -0.76416
upperback 1.95854 1.42439 -1.21184
thorax -1.19262 0.763767 -0.911409
lowerneck -6.44344 3.88886 5.93682
upperneck 7.9576 4.57991 -0.627094
head 3.93572 2.38694 -1.00927
rclavicle 1.27222e-014 1.03368e-014
rhumerus -36.4863 -0.257257 -87.2125
rradius 33.7836
rwrist -17.9125
rhand -18.069 -0.0411086
rfingers 7.12502
rthumb 8.20372 -29.8618
lclavicle 1.27222e-014 1.03368e-014
lhumerus -31.7588 1.20818 85.8918
lradius 29.8871
lwrist 0.543936
lhand -19.2438 11.9798
lfingers 7.12502
lthumb 7.06983 41.8418
rfemur -2.28643 18.3405 23.5574
rtibia 21.8528
rfoot -23.951 -31.4668
rtoes -25.8029
lfemur -1.12885 -19.709 -22.7605
ltibia 20.6101
lfoot -19.3153 25.3646
ltoes -7.83345
40
root 8.03561 15.556 2.06999 177.636 1.94234 -180.357
lowerback 5.72553 0.93084 -0.895992
upperback 1.98715 1.29221 -1.1301
thorax -1.15775 0.697166 -0.743972
lowerneck -6.05807 3.73995 5.62831
upperneck 7.96976 4.40722 -0.403812
head 3.83922 2.2985 -0.89636
rclavicle -4.79568e-015 -1.59028e-015
rhumerus -36.3919 -0.112557 -87.2013
rradius 33.7575
rwrist -17.724
rhand -17.9798 0.0561547
rfingers 7.12502
rthumb 8.28985 -29.7612
lclavicle -4.79568e-015 -1.59028e-015
lhumerus -31.826 1.30934 86.0209
lradius 30.3904
lwrist 2.19192
lhand -18.8817 12.684
lfingers 7.12502
lthumb 7.41935 42.5339
rfemur -2.302 18.3106 23.5096
rtibia 21.8816
rfoot -23.8677 -31.4226
rtoes -25.925
lfemur -1.08918 -19.7285 -22.8101
ltibia 20.5717
lfoot -19.2926 25.4171
ltoes -7.87368
41
root 8.03484 15.5563 2.0723 177.624 1.98413 -180.386
lowerback 5.71239 0.858453 -1.00102
upperback 2.01984 1.19216 -1.07191
thorax -1.12073 0.647049 -0.618095
lowerneck -5.74721 3.59937 5.32034
upperneck 8.00663 4.22954 -0.0989213
head 3.76529 2.21025 -0.755419
rclavicle 1.32192e-014 -1.23246e-014
rhumerus -36.2997 -0.0328774 -87.1879
rradius 33.7466
rwrist -17.5681
rhand -17.916 0.155439
rfingers 7.12502
rthumb 8.35138 -29.6595
lclavicle 1.32192e-014 -1.23246e-014
lhumerus -31.891 1.29923 86.1604
lradius 31.0182
lwrist 4.08304
lhand -18.565 13.4525
lfingers 7.12502
lthumb 7.72502 43.2914
rfemur -2.33322 18.2788 23.4616
rtibia 21.9249
rfoot -23.9018 -31.3307
rtoes -25.7951
lfemur -1.04402 -19.7732 -22.8568
ltibia 20.5112
lfoot -19.2672 25.4948
ltoes -7.87626
42
root 8.03415 15.5571 2.07519 177.623 2.02508 -180.41
lowerback 5.7037 0.822805 -1.06787
upperback 2.05112 1.14346 -1.05217
thorax -1.08552 0.623084 -0.556626
lowerneck -5.57447 3.45388 5.07319
upperneck 8.16402 4.02105 0.244633
head 3.76296 2.11025 -0.611157
rclavicle -7.35503e-015 2.82274e-014
rhumerus -36.212 0.0315335 -87.1845
rradius 33.7565
rwrist -17.5342
rhand -17.891 0.230833
rfingers 7.12502
rthumb 8.3755 -29.5831
lclavicle -7.35503e-015 2.82274e-014
lhumerus -31.9589 1.13078 86.2988
lradius 31.7483
lwrist 6.01219
lhand -18.363 14.1932
lfingers 7.12502
lthumb 7.92 44.0248
rfemur -2.37563 18.276 23.4203
rtibia 21.9689
rfoot -23.9615 -31.2595
rtoes -25.6377
lfemur -1.00658 -19.8405 -22.8963
ltibia 20.4445
lfoot -19.2586 25.5875
ltoes -7.80721
43
root 8.03371 15.5582 2.0785 177.632 2.06392 -180.422
lowerback 5.70062 0.818724 -1.09656
upperback 2.07968 1.13895 -1.06195
thorax -1.05478 0.62159 -0.549914
lowerneck -5.6004 3.30476 4.83269
upperneck 8.5206 3.78021 0.646134
head 3.87021 1.99804 -0.445865
rclavicle -1.2424e-016 -1.35174e-014
rhumerus -36.1502 0.04473 -87.1893
rradius 33.7949
rwrist -17.5606
rhand -17.9163 0.276844
rfingers 7.12502
rthumb 8.35107 -29.5381
lclavicle -1.2424e-016 -1.35174e-014
lhumerus -32.0363 0.837209 86.4353
lradius 32.5473
lwrist 7.75649
lhand -18.3093 14.8141
lfingers 7.12502
lthumb 7.97185 44.6438
rfemur -2.42121 18.3206 23.3954
rtibia 22.0044
rfoot -24.0109 -31.2352
rtoes -25.5274
lfemur -0.984398 -19.9133 -22.9193
ltibia 20.3843
lfoot -19.2706 25.6776
ltoes -7.67021
44
root 8.0334 15.5594 2.08212 177.646 2.09963 -180.415
lowerback 5.70708 0.832117 -1.09363
upperback 2.10723 1.15934 -1.07984
thorax -1.02959 0.63273 -0.57106
lowerneck -5.77728 3.1645 4.61908
upperneck 9.02867 3.53461 1.01679
head 4.06601 1.88489 -0.291735
rclavicle 3.47873e-016 -3.97569e-016
rhumerus -36.1039 0.0470094 -87.1956
rradius 33.8493
rwrist -17.6338
rhand -17.9757 0.28831
rfingers 7.12502
rthumb 8.2938 -29.5289
lclavicle 3.47873e-016 -3.97569e-016
lhumerus -32.1211 0.479397 86.5795
lradius 33.3714
lwrist 9.15956
lhand -18.3834 15.2638
lfingers 7.12502
lthumb 7.90033 45.0962
rfemur -2.4707 18.3902 23.3944
rtibia 22.0323
rfoot -23.8332 -31.3352
rtoes -25.9817
lfemur -0.976606 -19.963 -22.9155
ltibia 20.3316
lfoot -19.2904 25.7414
ltoes -7.49549
45
root 8.03308 15.5606 2.08594 177.662 2.13118 -180.413
lowerback 5.72545 0.843557 -1.10116
upperback 2.13748 1.17663 -1.08522
thorax -1.0087 0.642301 -0.573488
lowerneck -6.04111 3.05059 4.42035
upperneck 9.60517 3.32255 1.30396
head 4.31084 1.78703 -0.163562
rclavicle 3.72721e-016 -3.57812e-015
rhumerus -36.0632 0.0609808 -87.1897
rradius 33.9001
rwrist -17.7073
rhand -18.0368 0.287161
rfingers 7.12502
rthumb 8.23478 -29.5324
lclavicle 3.72721e-016 -3.57812e-015
lhumerus -32.2019 0.132776 86.7451
lradius 34.173
lwrist 10.1707
lhand -18.5308 15.5324
lfingers 7.12502
lthumb 7.75807 45.37
rfemur -2.52256 18.4666 23.3917
rtibia 22.057
rfoot -23.4258 -31.5388
rtoes -26.9822
lfemur -0.978522 -19.9742 -22.9083
ltibia 20.2827
lfoot -19.3129 25.7646
ltoes -7.28713
